<mxfile host="app.diagrams.net" modified="2021-10-25T10:32:06.734Z" agent="5.0 (Windows NT 10.0; Win64; x64) AppleWebKit/537.36 (KHTML, like Gecko) Chrome/95.0.4638.54 Safari/537.36" etag="Yci3YPzyIMURaomyZC_X" version="15.5.9" type="github">
  <diagram id="Hgf9vLsCcEp-ddHXqjoK" name="Page-1">
    <mxGraphModel dx="1422" dy="-375" grid="1" gridSize="10" guides="1" tooltips="1" connect="1" arrows="1" fold="1" page="1" pageScale="1" pageWidth="827" pageHeight="1169" math="0" shadow="0">
      <root>
        <mxCell id="0" />
        <mxCell id="1" parent="0" />
        <mxCell id="H_KB8hM7glTA4Rqze_tC-1" style="edgeStyle=orthogonalEdgeStyle;rounded=0;orthogonalLoop=1;jettySize=auto;html=1;exitX=0.5;exitY=0;exitDx=0;exitDy=0;entryX=0.5;entryY=0;entryDx=0;entryDy=0;fontSize=15;fontColor=#0000CC;" edge="1" parent="1" source="H_KB8hM7glTA4Rqze_tC-2" target="H_KB8hM7glTA4Rqze_tC-6">
          <mxGeometry relative="1" as="geometry" />
        </mxCell>
        <mxCell id="H_KB8hM7glTA4Rqze_tC-2" value="Side-Channel&lt;br&gt;Analysis Core" style="rounded=1;whiteSpace=wrap;html=1;fillColor=#dae8fc;strokeColor=#6c8ebf;" vertex="1" parent="1">
          <mxGeometry x="230" y="1840" width="114" height="110" as="geometry" />
        </mxCell>
        <mxCell id="H_KB8hM7glTA4Rqze_tC-3" style="edgeStyle=orthogonalEdgeStyle;rounded=0;orthogonalLoop=1;jettySize=auto;html=1;exitX=0.5;exitY=0;exitDx=0;exitDy=0;entryX=0.5;entryY=0;entryDx=0;entryDy=0;fontSize=15;fontColor=#0000CC;" edge="1" parent="1" source="H_KB8hM7glTA4Rqze_tC-4" target="H_KB8hM7glTA4Rqze_tC-24">
          <mxGeometry relative="1" as="geometry">
            <Array as="points">
              <mxPoint x="437" y="1800" />
              <mxPoint x="740" y="1800" />
            </Array>
          </mxGeometry>
        </mxCell>
        <mxCell id="H_KB8hM7glTA4Rqze_tC-4" value="Deep&lt;br&gt;Learning" style="rounded=1;whiteSpace=wrap;html=1;fillColor=#f8cecc;strokeColor=#b85450;strokeWidth=1;" vertex="1" parent="1">
          <mxGeometry x="380.29" y="1840" width="114" height="110" as="geometry" />
        </mxCell>
        <mxCell id="H_KB8hM7glTA4Rqze_tC-5" style="edgeStyle=orthogonalEdgeStyle;rounded=0;orthogonalLoop=1;jettySize=auto;html=1;exitX=0;exitY=0.5;exitDx=0;exitDy=0;entryX=1;entryY=0.5;entryDx=0;entryDy=0;fontSize=15;fontColor=#0000CC;" edge="1" parent="1" source="H_KB8hM7glTA4Rqze_tC-6" target="H_KB8hM7glTA4Rqze_tC-4">
          <mxGeometry relative="1" as="geometry" />
        </mxCell>
        <mxCell id="H_KB8hM7glTA4Rqze_tC-6" value="DATA&lt;br&gt;Analysis" style="rounded=1;whiteSpace=wrap;html=1;fillColor=#e1d5e7;strokeColor=#9673a6;strokeWidth=1;" vertex="1" parent="1">
          <mxGeometry x="530" y="1840" width="114" height="110" as="geometry" />
        </mxCell>
        <mxCell id="H_KB8hM7glTA4Rqze_tC-7" style="edgeStyle=orthogonalEdgeStyle;rounded=0;orthogonalLoop=1;jettySize=auto;html=1;exitX=0.5;exitY=0;exitDx=0;exitDy=0;entryX=0.5;entryY=1;entryDx=0;entryDy=0;fontSize=15;fontColor=#0000CC;" edge="1" parent="1" source="H_KB8hM7glTA4Rqze_tC-14" target="H_KB8hM7glTA4Rqze_tC-2">
          <mxGeometry relative="1" as="geometry" />
        </mxCell>
        <mxCell id="H_KB8hM7glTA4Rqze_tC-8" style="edgeStyle=orthogonalEdgeStyle;rounded=0;orthogonalLoop=1;jettySize=auto;html=1;exitX=0.25;exitY=1;exitDx=0;exitDy=0;entryX=0.5;entryY=0;entryDx=0;entryDy=0;fontSize=18;fontColor=#0000CC;" edge="1" parent="1" source="H_KB8hM7glTA4Rqze_tC-14" target="H_KB8hM7glTA4Rqze_tC-17">
          <mxGeometry relative="1" as="geometry" />
        </mxCell>
        <mxCell id="H_KB8hM7glTA4Rqze_tC-9" style="edgeStyle=orthogonalEdgeStyle;rounded=0;orthogonalLoop=1;jettySize=auto;html=1;exitX=0.75;exitY=1;exitDx=0;exitDy=0;fontSize=18;fontColor=#0000CC;" edge="1" parent="1" source="H_KB8hM7glTA4Rqze_tC-14">
          <mxGeometry relative="1" as="geometry">
            <mxPoint x="612.75" y="2117" as="targetPoint" />
          </mxGeometry>
        </mxCell>
        <mxCell id="H_KB8hM7glTA4Rqze_tC-10" style="edgeStyle=orthogonalEdgeStyle;rounded=0;orthogonalLoop=1;jettySize=auto;html=1;exitX=1;exitY=0.75;exitDx=0;exitDy=0;fontSize=18;fontColor=#0000CC;" edge="1" parent="1" source="H_KB8hM7glTA4Rqze_tC-14" target="H_KB8hM7glTA4Rqze_tC-19">
          <mxGeometry relative="1" as="geometry" />
        </mxCell>
        <mxCell id="H_KB8hM7glTA4Rqze_tC-11" value="" style="edgeStyle=orthogonalEdgeStyle;rounded=0;orthogonalLoop=1;jettySize=auto;html=1;fontSize=18;fontColor=#0000CC;" edge="1" parent="1" source="H_KB8hM7glTA4Rqze_tC-14" target="H_KB8hM7glTA4Rqze_tC-20">
          <mxGeometry relative="1" as="geometry" />
        </mxCell>
        <mxCell id="H_KB8hM7glTA4Rqze_tC-12" style="edgeStyle=orthogonalEdgeStyle;rounded=0;orthogonalLoop=1;jettySize=auto;html=1;exitX=0.75;exitY=0;exitDx=0;exitDy=0;entryX=0.5;entryY=1;entryDx=0;entryDy=0;fontSize=18;fontColor=#0000CC;" edge="1" parent="1" source="H_KB8hM7glTA4Rqze_tC-14" target="H_KB8hM7glTA4Rqze_tC-27">
          <mxGeometry relative="1" as="geometry" />
        </mxCell>
        <mxCell id="H_KB8hM7glTA4Rqze_tC-13" style="edgeStyle=orthogonalEdgeStyle;rounded=0;orthogonalLoop=1;jettySize=auto;html=1;exitX=0.5;exitY=1;exitDx=0;exitDy=0;entryX=0.5;entryY=0;entryDx=0;entryDy=0;" edge="1" parent="1" source="H_KB8hM7glTA4Rqze_tC-14" target="H_KB8hM7glTA4Rqze_tC-28">
          <mxGeometry relative="1" as="geometry" />
        </mxCell>
        <mxCell id="H_KB8hM7glTA4Rqze_tC-14" value="Web Platform" style="rounded=1;whiteSpace=wrap;html=1;strokeWidth=1;fontStyle=1;fontSize=21;fillColor=#1ba1e2;strokeColor=#006EAF;fontColor=#ffffff;" vertex="1" parent="1">
          <mxGeometry x="202.5" y="1995" width="737.5" height="80" as="geometry" />
        </mxCell>
        <mxCell id="H_KB8hM7glTA4Rqze_tC-15" style="edgeStyle=orthogonalEdgeStyle;rounded=0;orthogonalLoop=1;jettySize=auto;html=1;exitX=1;exitY=0.25;exitDx=0;exitDy=0;entryX=0;entryY=0.5;entryDx=0;entryDy=0;fontSize=15;fontColor=#0000CC;" edge="1" parent="1" source="H_KB8hM7glTA4Rqze_tC-16" target="H_KB8hM7glTA4Rqze_tC-14">
          <mxGeometry relative="1" as="geometry" />
        </mxCell>
        <mxCell id="H_KB8hM7glTA4Rqze_tC-16" value="KOSYAS PLATFORM" style="rounded=1;whiteSpace=wrap;html=1;fillColor=#f8cecc;strokeColor=#b85450;strokeWidth=1;horizontal=0;fontStyle=1;fontSize=18;" vertex="1" parent="1">
          <mxGeometry x="80" y="1840" width="81.2" height="390" as="geometry" />
        </mxCell>
        <mxCell id="H_KB8hM7glTA4Rqze_tC-17" value="유사도 분석" style="rounded=1;whiteSpace=wrap;html=1;fillColor=#dae8fc;strokeColor=#6c8ebf;" vertex="1" parent="1">
          <mxGeometry x="296.5" y="2120" width="114" height="110" as="geometry" />
        </mxCell>
        <mxCell id="H_KB8hM7glTA4Rqze_tC-18" value="Ask the expert" style="rounded=1;whiteSpace=wrap;html=1;fillColor=#f8cecc;strokeColor=#b85450;strokeWidth=1;" vertex="1" parent="1">
          <mxGeometry x="572" y="2120" width="114" height="110" as="geometry" />
        </mxCell>
        <mxCell id="H_KB8hM7glTA4Rqze_tC-19" value="Report&lt;br&gt;Viewer" style="rounded=1;whiteSpace=wrap;html=1;fillColor=#f8cecc;strokeColor=#b85450;strokeWidth=1;" vertex="1" parent="1">
          <mxGeometry x="700" y="2120" width="114" height="110" as="geometry" />
        </mxCell>
        <mxCell id="H_KB8hM7glTA4Rqze_tC-20" value="HUB" style="rounded=1;whiteSpace=wrap;html=1;fillColor=#60a917;strokeColor=#2D7600;strokeWidth=1;horizontal=0;fontStyle=1;fontSize=13;fontColor=#ffffff;" vertex="1" parent="1">
          <mxGeometry x="1000.4" y="1840" width="65.6" height="390" as="geometry" />
        </mxCell>
        <mxCell id="H_KB8hM7glTA4Rqze_tC-21" value="Module" style="text;html=1;strokeColor=none;fillColor=none;align=center;verticalAlign=middle;whiteSpace=wrap;rounded=0;fontSize=15;fontStyle=1;horizontal=0;fontColor=#0000CC;" vertex="1" parent="1">
          <mxGeometry x="190" y="1890" width="40" height="15" as="geometry" />
        </mxCell>
        <mxCell id="H_KB8hM7glTA4Rqze_tC-22" value="Service" style="text;html=1;strokeColor=none;fillColor=none;align=center;verticalAlign=middle;whiteSpace=wrap;rounded=0;fontSize=15;fontStyle=1;horizontal=0;fontColor=#0000CC;" vertex="1" parent="1">
          <mxGeometry x="256.5" y="2167.5" width="40" height="15" as="geometry" />
        </mxCell>
        <mxCell id="H_KB8hM7glTA4Rqze_tC-23" style="edgeStyle=orthogonalEdgeStyle;rounded=0;orthogonalLoop=1;jettySize=auto;html=1;exitX=0.75;exitY=0;exitDx=0;exitDy=0;entryX=0.5;entryY=0;entryDx=0;entryDy=0;" edge="1" parent="1" source="H_KB8hM7glTA4Rqze_tC-24" target="H_KB8hM7glTA4Rqze_tC-27">
          <mxGeometry relative="1" as="geometry">
            <Array as="points">
              <mxPoint x="769" y="1800" />
              <mxPoint x="888" y="1800" />
            </Array>
          </mxGeometry>
        </mxCell>
        <mxCell id="H_KB8hM7glTA4Rqze_tC-24" value="Result&lt;br&gt;Analysis" style="rounded=1;whiteSpace=wrap;html=1;fillColor=#e1d5e7;strokeColor=#9673a6;strokeWidth=1;" vertex="1" parent="1">
          <mxGeometry x="683" y="1840" width="114" height="110" as="geometry" />
        </mxCell>
        <mxCell id="H_KB8hM7glTA4Rqze_tC-25" style="edgeStyle=orthogonalEdgeStyle;rounded=0;orthogonalLoop=1;jettySize=auto;html=1;exitX=0.75;exitY=0;exitDx=0;exitDy=0;entryX=0.5;entryY=1;entryDx=0;entryDy=0;fontSize=15;fontColor=#0000CC;" edge="1" parent="1" source="H_KB8hM7glTA4Rqze_tC-14" target="H_KB8hM7glTA4Rqze_tC-6">
          <mxGeometry relative="1" as="geometry">
            <mxPoint x="511.25" y="2010" as="sourcePoint" />
            <mxPoint x="297" y="1960" as="targetPoint" />
          </mxGeometry>
        </mxCell>
        <mxCell id="H_KB8hM7glTA4Rqze_tC-26" value="Sharing&lt;br&gt;Idea" style="rounded=1;whiteSpace=wrap;html=1;fillColor=#f8cecc;strokeColor=#b85450;strokeWidth=1;" vertex="1" parent="1">
          <mxGeometry x="826" y="2120" width="114" height="110" as="geometry" />
        </mxCell>
        <mxCell id="H_KB8hM7glTA4Rqze_tC-27" value="Output" style="rounded=1;whiteSpace=wrap;html=1;fillColor=#e1d5e7;strokeColor=#9673a6;strokeWidth=1;" vertex="1" parent="1">
          <mxGeometry x="830.8199999999999" y="1840" width="114" height="110" as="geometry" />
        </mxCell>
        <mxCell id="H_KB8hM7glTA4Rqze_tC-28" value="MSDN" style="rounded=1;whiteSpace=wrap;html=1;fillColor=#f8cecc;strokeColor=#b85450;strokeWidth=1;" vertex="1" parent="1">
          <mxGeometry x="434" y="2120" width="114" height="110" as="geometry" />
        </mxCell>
        <mxCell id="H_KB8hM7glTA4Rqze_tC-43" style="edgeStyle=orthogonalEdgeStyle;rounded=0;orthogonalLoop=1;jettySize=auto;html=1;exitX=0.5;exitY=1;exitDx=0;exitDy=0;entryX=0.5;entryY=0;entryDx=0;entryDy=0;" edge="1" parent="1" source="H_KB8hM7glTA4Rqze_tC-31" target="H_KB8hM7glTA4Rqze_tC-42">
          <mxGeometry relative="1" as="geometry" />
        </mxCell>
        <mxCell id="H_KB8hM7glTA4Rqze_tC-51" style="edgeStyle=orthogonalEdgeStyle;rounded=0;orthogonalLoop=1;jettySize=auto;html=1;exitX=0.25;exitY=0;exitDx=0;exitDy=0;entryX=0.5;entryY=1;entryDx=0;entryDy=0;" edge="1" parent="1" source="H_KB8hM7glTA4Rqze_tC-31" target="H_KB8hM7glTA4Rqze_tC-47">
          <mxGeometry relative="1" as="geometry" />
        </mxCell>
        <mxCell id="H_KB8hM7glTA4Rqze_tC-52" style="edgeStyle=orthogonalEdgeStyle;rounded=0;orthogonalLoop=1;jettySize=auto;html=1;exitX=0.5;exitY=0;exitDx=0;exitDy=0;entryX=0.5;entryY=1;entryDx=0;entryDy=0;" edge="1" parent="1" source="H_KB8hM7glTA4Rqze_tC-31" target="H_KB8hM7glTA4Rqze_tC-48">
          <mxGeometry relative="1" as="geometry" />
        </mxCell>
        <mxCell id="H_KB8hM7glTA4Rqze_tC-53" style="edgeStyle=orthogonalEdgeStyle;rounded=0;orthogonalLoop=1;jettySize=auto;html=1;exitX=0.75;exitY=0;exitDx=0;exitDy=0;entryX=0.5;entryY=1;entryDx=0;entryDy=0;" edge="1" parent="1" source="H_KB8hM7glTA4Rqze_tC-31" target="H_KB8hM7glTA4Rqze_tC-49">
          <mxGeometry relative="1" as="geometry" />
        </mxCell>
        <mxCell id="H_KB8hM7glTA4Rqze_tC-58" style="edgeStyle=orthogonalEdgeStyle;rounded=0;orthogonalLoop=1;jettySize=auto;html=1;exitX=1;exitY=0.5;exitDx=0;exitDy=0;entryX=0;entryY=0.5;entryDx=0;entryDy=0;" edge="1" parent="1" source="H_KB8hM7glTA4Rqze_tC-31" target="H_KB8hM7glTA4Rqze_tC-36">
          <mxGeometry relative="1" as="geometry" />
        </mxCell>
        <mxCell id="H_KB8hM7glTA4Rqze_tC-31" value="Web Platform&lt;br&gt;&amp;nbsp;&amp;nbsp;&lt;br&gt;&amp;nbsp;&amp;nbsp;" style="rounded=1;whiteSpace=wrap;html=1;strokeWidth=1;fontStyle=1;fontSize=21;fillColor=#1ba1e2;strokeColor=#006EAF;fontColor=#ffffff;" vertex="1" parent="1">
          <mxGeometry x="230" y="1380" width="490" height="140" as="geometry" />
        </mxCell>
        <mxCell id="H_KB8hM7glTA4Rqze_tC-38" style="edgeStyle=orthogonalEdgeStyle;rounded=0;orthogonalLoop=1;jettySize=auto;html=1;exitX=0.5;exitY=1;exitDx=0;exitDy=0;entryX=0.5;entryY=0;entryDx=0;entryDy=0;" edge="1" parent="1" source="H_KB8hM7glTA4Rqze_tC-29" target="H_KB8hM7glTA4Rqze_tC-33">
          <mxGeometry relative="1" as="geometry" />
        </mxCell>
        <mxCell id="H_KB8hM7glTA4Rqze_tC-39" style="edgeStyle=orthogonalEdgeStyle;rounded=0;orthogonalLoop=1;jettySize=auto;html=1;exitX=0.5;exitY=1;exitDx=0;exitDy=0;" edge="1" parent="1" source="H_KB8hM7glTA4Rqze_tC-29" target="H_KB8hM7glTA4Rqze_tC-35">
          <mxGeometry relative="1" as="geometry" />
        </mxCell>
        <mxCell id="H_KB8hM7glTA4Rqze_tC-40" style="edgeStyle=orthogonalEdgeStyle;rounded=0;orthogonalLoop=1;jettySize=auto;html=1;exitX=1;exitY=0.5;exitDx=0;exitDy=0;entryX=0;entryY=0.5;entryDx=0;entryDy=0;" edge="1" parent="1" source="H_KB8hM7glTA4Rqze_tC-29" target="H_KB8hM7glTA4Rqze_tC-30">
          <mxGeometry relative="1" as="geometry" />
        </mxCell>
        <mxCell id="H_KB8hM7glTA4Rqze_tC-29" value="Python" style="rounded=1;whiteSpace=wrap;html=1;fillColor=#dae8fc;strokeColor=#6c8ebf;fontStyle=1" vertex="1" parent="1">
          <mxGeometry x="250" y="1395" width="114" height="110" as="geometry" />
        </mxCell>
        <mxCell id="H_KB8hM7glTA4Rqze_tC-41" style="edgeStyle=orthogonalEdgeStyle;rounded=0;orthogonalLoop=1;jettySize=auto;html=1;exitX=0;exitY=0.5;exitDx=0;exitDy=0;entryX=1;entryY=0.5;entryDx=0;entryDy=0;" edge="1" parent="1" source="H_KB8hM7glTA4Rqze_tC-30" target="H_KB8hM7glTA4Rqze_tC-29">
          <mxGeometry relative="1" as="geometry" />
        </mxCell>
        <mxCell id="H_KB8hM7glTA4Rqze_tC-30" value="Flask" style="rounded=1;whiteSpace=wrap;html=1;fillColor=#dae8fc;strokeColor=#6c8ebf;fontStyle=1" vertex="1" parent="1">
          <mxGeometry x="586" y="1395" width="114" height="110" as="geometry" />
        </mxCell>
        <mxCell id="H_KB8hM7glTA4Rqze_tC-33" value="유사도 분석" style="rounded=1;whiteSpace=wrap;html=1;fillColor=#f8cecc;strokeColor=#b85450;strokeWidth=1;fontStyle=1" vertex="1" parent="1">
          <mxGeometry x="232.00000000000003" y="1550" width="114" height="110" as="geometry" />
        </mxCell>
        <mxCell id="H_KB8hM7glTA4Rqze_tC-35" value="도서 데이터 &lt;br&gt;검색 결과" style="rounded=1;whiteSpace=wrap;html=1;fillColor=#e1d5e7;strokeColor=#9673a6;strokeWidth=1;fontStyle=1" vertex="1" parent="1">
          <mxGeometry x="380.29" y="1550" width="114" height="110" as="geometry" />
        </mxCell>
        <mxCell id="H_KB8hM7glTA4Rqze_tC-59" style="edgeStyle=orthogonalEdgeStyle;rounded=0;orthogonalLoop=1;jettySize=auto;html=1;exitX=0;exitY=0.5;exitDx=0;exitDy=0;entryX=1;entryY=0.5;entryDx=0;entryDy=0;" edge="1" parent="1" source="H_KB8hM7glTA4Rqze_tC-36" target="H_KB8hM7glTA4Rqze_tC-31">
          <mxGeometry relative="1" as="geometry" />
        </mxCell>
        <mxCell id="H_KB8hM7glTA4Rqze_tC-36" value="결과 화면 구성" style="rounded=1;whiteSpace=wrap;html=1;fillColor=#f8cecc;strokeColor=#b85450;strokeWidth=1;horizontal=0;fontStyle=1;fontSize=18;" vertex="1" parent="1">
          <mxGeometry x="749.62" y="1240" width="81.2" height="420" as="geometry" />
        </mxCell>
        <mxCell id="H_KB8hM7glTA4Rqze_tC-42" value="&lt;b&gt;결과 &amp;amp; 챠트&lt;/b&gt;&amp;nbsp;" style="rounded=1;whiteSpace=wrap;html=1;fillColor=#e1d5e7;strokeColor=#9673a6;strokeWidth=1;" vertex="1" parent="1">
          <mxGeometry x="536" y="1550" width="186" height="110" as="geometry" />
        </mxCell>
        <mxCell id="H_KB8hM7glTA4Rqze_tC-44" value="화면 UI 디자인" style="rounded=1;whiteSpace=wrap;html=1;fillColor=#e1d5e7;strokeColor=#9673a6;strokeWidth=1;fontStyle=1" vertex="1" parent="1">
          <mxGeometry x="232" y="1240" width="114" height="40" as="geometry" />
        </mxCell>
        <mxCell id="H_KB8hM7glTA4Rqze_tC-45" value="&amp;nbsp;WEB 세부 &lt;br&gt;기능 구성" style="rounded=1;whiteSpace=wrap;html=1;fillColor=#e1d5e7;strokeColor=#9673a6;strokeWidth=1;fontStyle=1" vertex="1" parent="1">
          <mxGeometry x="420" y="1240" width="114" height="40" as="geometry" />
        </mxCell>
        <mxCell id="H_KB8hM7glTA4Rqze_tC-46" value="이벤트 연동" style="rounded=1;whiteSpace=wrap;html=1;fillColor=#e1d5e7;strokeColor=#9673a6;strokeWidth=1;fontStyle=1" vertex="1" parent="1">
          <mxGeometry x="608" y="1240" width="114" height="40" as="geometry" />
        </mxCell>
        <mxCell id="H_KB8hM7glTA4Rqze_tC-54" style="edgeStyle=orthogonalEdgeStyle;rounded=0;orthogonalLoop=1;jettySize=auto;html=1;exitX=0.5;exitY=0;exitDx=0;exitDy=0;entryX=0.5;entryY=1;entryDx=0;entryDy=0;" edge="1" parent="1" source="H_KB8hM7glTA4Rqze_tC-47" target="H_KB8hM7glTA4Rqze_tC-44">
          <mxGeometry relative="1" as="geometry" />
        </mxCell>
        <mxCell id="H_KB8hM7glTA4Rqze_tC-47" value="HTML/CSS/JS" style="rounded=1;whiteSpace=wrap;html=1;fillColor=#fff2cc;strokeColor=#d6b656;strokeWidth=1;fontStyle=1" vertex="1" parent="1">
          <mxGeometry x="232" y="1303" width="114" height="40" as="geometry" />
        </mxCell>
        <mxCell id="H_KB8hM7glTA4Rqze_tC-55" style="edgeStyle=orthogonalEdgeStyle;rounded=0;orthogonalLoop=1;jettySize=auto;html=1;exitX=0.5;exitY=0;exitDx=0;exitDy=0;entryX=0.5;entryY=1;entryDx=0;entryDy=0;" edge="1" parent="1" source="H_KB8hM7glTA4Rqze_tC-48" target="H_KB8hM7glTA4Rqze_tC-45">
          <mxGeometry relative="1" as="geometry" />
        </mxCell>
        <mxCell id="H_KB8hM7glTA4Rqze_tC-57" style="edgeStyle=orthogonalEdgeStyle;rounded=0;orthogonalLoop=1;jettySize=auto;html=1;exitX=1;exitY=0.5;exitDx=0;exitDy=0;entryX=0;entryY=0.5;entryDx=0;entryDy=0;" edge="1" parent="1" source="H_KB8hM7glTA4Rqze_tC-48" target="H_KB8hM7glTA4Rqze_tC-49">
          <mxGeometry relative="1" as="geometry" />
        </mxCell>
        <mxCell id="H_KB8hM7glTA4Rqze_tC-48" value="Jquery/DB" style="rounded=1;whiteSpace=wrap;html=1;fillColor=#fff2cc;strokeColor=#d6b656;strokeWidth=1;fontStyle=1" vertex="1" parent="1">
          <mxGeometry x="420" y="1303" width="114" height="40" as="geometry" />
        </mxCell>
        <mxCell id="H_KB8hM7glTA4Rqze_tC-56" style="edgeStyle=orthogonalEdgeStyle;rounded=0;orthogonalLoop=1;jettySize=auto;html=1;exitX=0.5;exitY=0;exitDx=0;exitDy=0;entryX=0.5;entryY=1;entryDx=0;entryDy=0;" edge="1" parent="1" source="H_KB8hM7glTA4Rqze_tC-49" target="H_KB8hM7glTA4Rqze_tC-46">
          <mxGeometry relative="1" as="geometry" />
        </mxCell>
        <mxCell id="H_KB8hM7glTA4Rqze_tC-49" value="Ajax 사용" style="rounded=1;whiteSpace=wrap;html=1;fillColor=#fff2cc;strokeColor=#d6b656;strokeWidth=1;fontStyle=1" vertex="1" parent="1">
          <mxGeometry x="608" y="1303" width="114" height="40" as="geometry" />
        </mxCell>
      </root>
    </mxGraphModel>
  </diagram>
</mxfile>
